<svg xmlns="http://www.w3.org/2000/svg" viewBox="0 0 320 88" fill="none">
  <rect x="0" y="8" width="72" height="72" rx="8" fill="#0f1c2e" stroke="#b8975a" stroke-width="1.5"/>
  <path d="M18 58V30h24.8c19.2 0 31.2 9.6 31.2 25.6 0 10.4-4.8 18.4-13.6 22.4L72 58H62.4L41.6 46.4H30.8V58H18zm20.8-42.4h4c8.8 0 13.6 4 13.6 11.2 0 7.2-4.8 11.2-13.6 11.2h-4v-22.4z" fill="#faf9f7"/>
  <path d="M78 30h21l22 80h-21.2l-3.6-14.4h-23.2l-3.6 14.4H68L78 30zm15.2 48.8l-7.2-29.6-7.2 29.6h14.4z" fill="#b8975a"/>
  <text x="92" y="28" fill="#6b6560" font-family="Georgia, serif" font-size="9" letter-spacing="3.2">THE LAW OFFICES OF</text>
  <text x="92" y="52" fill="#0f1c2e" font-family="Georgia, serif" font-size="26" font-weight="600">Edgar P. Lombera</text>
  <line x1="92" y1="62" x2="200" y2="62" stroke="#b8975a" stroke-width="1" opacity="0.7"/>
  <text x="92" y="76" fill="#8a8278" font-family="system-ui, sans-serif" font-size="10" letter-spacing="0.5">Bankruptcy &amp; debt relief</text>
</svg>
